<?xml version="1.0" encoding="UTF-8"?>
<svg version="1.1" xmlns="http://www.w3.org/2000/svg" width="164" height="157">
<path d="M0 0 C11.77477656 9.66469492 21.19531549 25.36574036 23.6875 40.375 C25.27136527 58.87766802 23.49462843 76.97730934 11.6171875 91.9921875 C-0.02617012 105.33945111 -13.35021535 115.68192762 -31.3125 118.375 C-53.7498949 119.8625478 -72.18417453 115.26693063 -89.51953125 100.17578125 C-99.43859213 90.22897474 -108.35101037 75.78993894 -108.4375 61.375 C-108.375625 59.89 -108.375625 59.89 -108.3125 58.375 C-106.4375 57.75 -106.4375 57.75 -104.3125 57.375 C-101.57177528 60.11572472 -101.35050975 63.14743602 -100.5625 66.8125 C-97.05577166 81.70071508 -88.92057625 93.31090007 -76.05078125 101.77734375 C-61.252827 110.41124288 -45.25876649 114.49284052 -28.3125 110.125 C-12.76840207 105.0925689 1.7916376 96.15322605 9.6875 81.375 C17.36217129 65.4056979 19.07280308 49.86496874 13.94140625 32.84375 C10.39220792 23.02540696 5.03106326 15.73153776 -2.3125 8.375 C-2.87710938 7.79878906 -3.44171875 7.22257812 -4.0234375 6.62890625 C-16.08493741 -4.69713635 -31.63491644 -7.3355751 -47.49609375 -6.90625 C-62.98951672 -6.18436658 -74.87963296 0.30994068 -85.71875 10.984375 C-87.91762536 13.01104928 -89.57555737 14.26473082 -92.3125 15.375 C-94.3125 13.375 -94.3125 13.375 -94.375 11.1875 C-90.88820239 1.95774163 -79.06781554 -4.57277579 -70.38671875 -8.49511719 C-46.07450391 -18.36112291 -21.55927812 -14.29906947 0 0 Z " fill="#B87A4C" transform="translate(124.3125,24.625)"/>
<path d="M0 0 C2.10639727 0.0381913 4.21158302 0.15592443 6.3125 0.3125 C7.46363281 0.39113281 8.61476563 0.46976563 9.80078125 0.55078125 C14.58888889 1.22310406 14.58888889 1.22310406 17 3 C18.265625 5.3125 18.265625 5.3125 19.25 8 C19.58515625 8.886875 19.9203125 9.77375 20.265625 10.6875 C21 13 21 13 21 15 C21.62003906 14.98839844 22.24007812 14.97679688 22.87890625 14.96484375 C30.96332056 14.88246981 38.94295895 15.39110081 47 16 C47.625 17.875 47.625 17.875 48 20 C46 22 46 22 43.75341797 22.22705078 C42.84221191 22.21657715 41.93100586 22.20610352 40.9921875 22.1953125 C40.1038623 22.19031738 39.21553711 22.18532227 38.30029297 22.18017578 C37.16994629 22.16196777 36.03959961 22.14375977 34.875 22.125 C31.28625 22.08375 27.6975 22.0425 24 22 C26.31 28.93 28.62 35.86 31 43 C38.61772148 43.04085415 38.61772148 43.04085415 46.17431641 42.72460938 C47.05447418 42.66454712 47.93463196 42.60448486 48.84146118 42.54260254 C49.75229462 42.4769812 50.66312805 42.41135986 51.6015625 42.34375 C52.564039 42.27716187 53.5265155 42.21057373 54.51815796 42.14196777 C57.55400706 41.93120022 60.58949667 41.71568431 63.625 41.5 C65.69919672 41.35515296 67.77341532 41.21061881 69.84765625 41.06640625 C74.89874786 40.71513129 79.94932455 40.35741932 85 40 C86.98 34.06 88.96 28.12 91 22 C88.43605469 22.03480469 88.43605469 22.03480469 85.8203125 22.0703125 C83.58854602 22.08906684 81.35677483 22.1072674 79.125 22.125 C77.99707031 22.14175781 76.86914062 22.15851563 75.70703125 22.17578125 C74.09248047 22.18544922 74.09248047 22.18544922 72.4453125 22.1953125 C70.95281982 22.21102295 70.95281982 22.21102295 69.43017578 22.22705078 C67 22 67 22 65 20 C65 18.68 65 17.36 65 16 C67.72864173 14.63567914 69.90980277 14.87032976 72.9609375 14.8671875 C74.15460938 14.86589844 75.34828125 14.86460938 76.578125 14.86328125 C77.83109375 14.86714844 79.0840625 14.87101562 80.375 14.875 C81.62023437 14.87113281 82.86546875 14.86726563 84.1484375 14.86328125 C85.3446875 14.86457031 86.5409375 14.86585937 87.7734375 14.8671875 C88.87091309 14.86831543 89.96838867 14.86944336 91.09912109 14.87060547 C93.58232833 14.98136964 95.63496825 15.27808822 98 16 C98.42938011 22.82237281 96.98241618 28.00436341 94.625 34.375 C94.14933594 35.72658203 94.14933594 35.72658203 93.6640625 37.10546875 C91.28628147 43.71371853 91.28628147 43.71371853 89 46 C85.96128588 46.44423841 82.99459987 46.76055899 79.9375 47 C78.99825684 47.07976074 78.05901367 47.15952148 77.09130859 47.24169922 C62.74667264 48.41143348 48.36836635 49.18590601 34 50 C34.495 51.98 34.495 51.98 35 54 C52.16 54.33 69.32 54.66 87 55 C86.67 56.65 86.34 58.3 86 60 C84.02 60.66 82.04 61.32 80 62 C80.515625 62.515625 81.03125 63.03125 81.5625 63.5625 C83 66 83 66 82.9375 69.5625 C82 73 82 73 80.375 74.9375 C77.02317947 76.43699866 74.63019782 76.45377473 71 76 C68.5625 74.4375 68.5625 74.4375 67 72 C66.5625 68.4375 66.5625 68.4375 67 65 C68.52734375 63.28515625 68.52734375 63.28515625 70 62 C60.98865693 61.3668316 52.04028922 60.8276216 43 61 C44.2065625 61.5259375 44.2065625 61.5259375 45.4375 62.0625 C48 64 48 64 48.9375 67.4375 C49.0245098 72.39705882 49.0245098 72.39705882 47 75 C44.48151662 76.88886253 43.17180132 77.00715839 40 76.875 C36.46199505 75.84308189 35.08227446 75.04332421 33 72 C32.4375 68.5 32.4375 68.5 33 65 C35.5 62.5625 35.5 62.5625 38 61 C36.906875 60.9175 35.81375 60.835 34.6875 60.75 C31 60 31 60 29.46118164 58.47509766 C27.42515252 55.02626504 26.20949095 51.43426872 24.93359375 47.6484375 C24.65403336 46.83436432 24.37447296 46.02029114 24.08644104 45.18154907 C23.4971826 43.45964923 22.91156406 41.73650003 22.3293457 40.01220703 C21.44652198 37.40167819 20.54938827 34.79640299 19.65039062 32.19140625 C19.07725363 30.51071356 18.50496143 28.82973251 17.93359375 27.1484375 C17.66896835 26.38139496 17.40434296 25.61435242 17.13169861 24.82406616 C15.27196817 19.27594825 14.06137579 13.75522692 13 8 C8.71 7.34 4.42 6.68 0 6 C-0.33 4.35 -0.66 2.7 -1 1 C-0.67 0.67 -0.34 0.34 0 0 Z M40 67 C40 68.32 40 69.64 40 71 C40.99 70.67 41.98 70.34 43 70 C43 69.01 43 68.02 43 67 C42.01 67 41.02 67 40 67 Z M73 67 C73 67.99 73 68.98 73 70 C74.32 70 75.64 70 77 70 C77 69.01 77 68.02 77 67 C75.68 67 74.36 67 73 67 Z " fill="#76A2AE" transform="translate(26,53)"/>
<path d="M0 0 C2.00026421 6.20081906 -0.13094163 12.43524367 -2.6875 18.1875 C-5.65808931 23.6995935 -9.70416181 27.09806357 -15.5 29.375 C-19.08046436 30.01436864 -22.3706866 30.14813524 -26 30 C-28.77471079 36.24309927 -29.37634203 41.19796625 -29 48 C-31.475 48.495 -31.475 48.495 -34 49 C-35.35841412 44.92475764 -35.02206383 41.17534425 -34.9375 36.91015625 C-34.99161771 34.39030043 -35.26206437 32.39252569 -36 30 C-36.969375 30.061875 -37.93875 30.12375 -38.9375 30.1875 C-44.56121034 30.13069485 -49.58323149 28.94554531 -54.0234375 25.37109375 C-59.53005759 19.62050948 -61.69845627 13.29699811 -62.25 5.4375 C-62 3 -62 3 -61 2 C-53.35083937 1.00447498 -47.58832976 1.76842973 -41.19921875 6.171875 C-35.90371678 10.5738198 -32.87635762 14.48000989 -32.0625 21.4375 C-31.91015625 23.99609375 -31.91015625 23.99609375 -32 26 C-32.33 26.33 -32.66 26.66 -33 27 C-31.68 26.67 -30.36 26.34 -29 26 C-29.33 25.67 -29.66 25.34 -30 25 C-30.90285938 19.10561807 -30.05407835 14.71954309 -26.6171875 9.85546875 C-19.17046957 1.31152909 -10.95828998 -0.39687972 0 0 Z " fill="#A6B758" transform="translate(114,37)"/>
<path d="M0 0 C2.46875 2.25390625 2.46875 2.25390625 4 4 C2.68 4 1.36 4 0 4 C0 4.66 0 5.32 0 6 C-4.0425457 5.39729319 -7.0428624 4.06572684 -10.625 2.125 C-24.89803369 -5.06335595 -41.80233071 -6.76276953 -57.28125 -2.0234375 C-67.0465496 1.65258045 -74.04838174 6.36329756 -81.40625 13.609375 C-83.60512536 15.63604928 -85.26305737 16.88973082 -88 18 C-90 16 -90 16 -90.0625 13.8125 C-86.57570239 4.58274163 -74.75531554 -1.94777579 -66.07421875 -5.87011719 C-43.89630325 -14.87001467 -20.24973504 -12.76482403 0 0 Z " fill="#889D55" transform="translate(120,22)"/>
<path d="M0 0 C1.9375 0.0625 1.9375 0.0625 4 1 C5.13306661 3.96240698 5.98630873 6.9500366 6.82421875 10.0078125 C11.10102353 25.45075465 18.88384262 37.2108636 32.875 45.3125 C42.88301535 50.86845998 52.41732847 53.89732731 63.8125 54.5625 C64.85180664 54.62727539 64.85180664 54.62727539 65.91210938 54.69335938 C67.60788686 54.79861453 69.30392052 54.89972863 71 55 C71 55.33 71 55.66 71 56 C69.35 56 67.7 56 66 56 C66 57.65 66 59.3 66 61 C48.96387918 62.2750527 34.00098364 55.69435009 20.75 45.375 C9.73899129 35.78945873 1.64541689 22.4295467 -1 8 C-1.1875 4.0625 -1.1875 4.0625 -1 1 C-0.67 0.67 -0.34 0.34 0 0 Z " fill="#8C9F55" transform="translate(17,82)"/>
<path d="M0 0 C1.9690003 6.10390093 -0.06081245 11.94101192 -2.625 17.5625 C-3.07875 18.366875 -3.5325 19.17125 -4 20 C-4.99 20 -5.98 20 -7 20 C-7 20.66 -7 21.32 -7 22 C-7.66 22 -8.32 22 -9 22 C-9.33 21.34 -9.66 20.68 -10 20 C-10.61875 20.20625 -11.2375 20.4125 -11.875 20.625 C-12.57625 20.74875 -13.2775 20.8725 -14 21 C-14.66 20.34 -15.32 19.68 -16 19 C-18.10820797 19.3185177 -18.10820797 19.3185177 -20 20 C-18.62594577 17.04049858 -16.98223068 14.58504604 -15 12 C-16.60820412 13.41208167 -18.21140708 14.82986036 -19.8125 16.25 C-20.70582031 17.03890625 -21.59914063 17.8278125 -22.51953125 18.640625 C-25.00569534 20.86949988 -25.00569534 20.86949988 -26.69921875 23.296875 C-27.12847656 23.85890625 -27.55773437 24.4209375 -28 25 C-28.66 25 -29.32 25 -30 25 C-30.62442188 19.00554991 -30.13641371 14.83606855 -26.6171875 9.85546875 C-19.17046957 1.31152909 -10.95828998 -0.39687972 0 0 Z " fill="#ADBF5A" transform="translate(114,37)"/>
<path d="M0 0 C18.15 0 36.3 0 55 0 C52.8614515 2.1385485 51.86724686 2.42655063 49 3 C49.515625 3.515625 50.03125 4.03125 50.5625 4.5625 C52 7 52 7 51.9375 10.5625 C51 14 51 14 49.375 15.9375 C46.02317947 17.43699866 43.63019782 17.45377473 40 17 C37.5625 15.4375 37.5625 15.4375 36 13 C35.5625 9.4375 35.5625 9.4375 36 6 C37.52734375 4.28515625 37.52734375 4.28515625 39 3 C29.98865693 2.3668316 21.04028922 1.8276216 12 2 C12.804375 2.350625 13.60875 2.70125 14.4375 3.0625 C17 5 17 5 17.9375 8.4375 C18.0245098 13.39705882 18.0245098 13.39705882 16 16 C13.48151662 17.88886253 12.17180132 18.00715839 9 17.875 C5.46199505 16.84308189 4.08227446 16.04332421 2 13 C1.4375 9.5 1.4375 9.5 2 6 C4.5 3.5625 4.5 3.5625 7 2 C4.69 1.67 2.38 1.34 0 1 C0 0.67 0 0.34 0 0 Z M9 8 C9 9.32 9 10.64 9 12 C9.99 11.67 10.98 11.34 12 11 C12 10.01 12 9.02 12 8 C11.01 8 10.02 8 9 8 Z M42 8 C42 8.99 42 9.98 42 11 C43.32 11 44.64 11 46 11 C46 10.01 46 9.02 46 8 C44.68 8 43.36 8 42 8 Z " fill="#7098A4" transform="translate(57,112)"/>
<path d="M0 0 C0.66 0.33 1.32 0.66 2 1 C-0.31 3.64 -2.62 6.28 -5 9 C-3.35 8.34 -1.7 7.68 0 7 C0.495 8.485 0.495 8.485 1 10 C2.98 9.34 4.96 8.68 7 8 C6.67 8.99 6.34 9.98 6 11 C6.66 11 7.32 11 8 11 C8 10.34 8 9.68 8 9 C8.66 9 9.32 9 10 9 C8.49373726 12.83412335 6.40731799 14.72845467 3 17 C-1.79460379 18.77577918 -5.90597344 19.20791945 -11 19 C-13.77471079 25.24309927 -14.37634203 30.19796625 -14 37 C-16.475 37.495 -16.475 37.495 -19 38 C-20.35841412 33.92475764 -20.02206383 30.17534425 -19.9375 25.91015625 C-19.99161771 23.39030043 -20.26206437 21.39252569 -21 19 C-21.969375 19.061875 -22.93875 19.12375 -23.9375 19.1875 C-28.59296583 19.1780184 -32.80662583 18.00043199 -37 16 C-39.0625 13.8125 -39.0625 13.8125 -40 12 C-39.01 12 -38.02 12 -37 12 C-37 12.66 -37 13.32 -37 14 C-32.85906302 14.20970559 -32.85906302 14.20970559 -29 13 C-29.41474367 7.71201818 -30.35224614 4.88309282 -34 1 C-26.74490788 4.22448539 -22.61114756 9.78093068 -18 16 C-15.48958151 15.62451005 -14.29018586 15.3268577 -12.578125 13.3984375 C-12.13984375 12.73070312 -11.7015625 12.06296875 -11.25 11.375 C-8.065077 6.85077605 -4.27681824 3.47355796 0 0 Z " fill="#869A59" transform="translate(99,48)"/>
<path d="M0 0 C2.10639727 0.0381913 4.21158302 0.15592443 6.3125 0.3125 C7.46363281 0.39113281 8.61476563 0.46976563 9.80078125 0.55078125 C14.58888889 1.22310406 14.58888889 1.22310406 17 3 C18.265625 5.3125 18.265625 5.3125 19.25 8 C19.58515625 8.886875 19.9203125 9.77375 20.265625 10.6875 C21 13 21 13 21 15 C21.62003906 14.98839844 22.24007812 14.97679688 22.87890625 14.96484375 C30.96332056 14.88246981 38.94295895 15.39110081 47 16 C47.625 17.875 47.625 17.875 48 20 C46 22 46 22 43.75341797 22.22705078 C42.84221191 22.21657715 41.93100586 22.20610352 40.9921875 22.1953125 C40.00605469 22.18886719 39.01992187 22.18242188 38.00390625 22.17578125 C36.45509766 22.15064453 36.45509766 22.15064453 34.875 22.125 C33.83472656 22.11597656 32.79445312 22.10695313 31.72265625 22.09765625 C29.14820908 22.07403747 26.57421788 22.04110149 24 22 C24 21.34 24 20.68 24 20 C31.26 20 38.52 20 46 20 C46 19.01 46 18.02 46 17 C44.58460937 17.01740234 44.58460937 17.01740234 43.140625 17.03515625 C35.03074116 17.09215343 27.07707803 16.84230236 19 16 C19 14.35 19 12.7 19 11 C18.01 11.495 18.01 11.495 17 12 C17.2475 13.0209375 17.2475 13.0209375 17.5 14.0625 C18.07089059 17.4164822 18.06659023 20.60389805 18 24 C16.13389074 21.20083611 15.31214617 19.18061731 14.375 16 C14.11460938 15.13375 13.85421875 14.2675 13.5859375 13.375 C13 11 13 11 13 8 C8.71 7.34 4.42 6.68 0 6 C-0.33 4.35 -0.66 2.7 -1 1 C-0.67 0.67 -0.34 0.34 0 0 Z " fill="#6E949E" transform="translate(26,53)"/>
<path d="M0 0 C2.87205802 1.62013529 4.5432555 2.63886906 6.4375 5.375 C6.76716646 8.40479174 6.67092311 11.34049958 6.4375 14.375 C5.7775 14.375 5.1175 14.375 4.4375 14.375 C4.4375 15.035 4.4375 15.695 4.4375 16.375 C0.66696872 18.20640091 -1.54862209 18.7129593 -5.5625 17.375 C-7.8125 16.25 -7.8125 16.25 -9.5625 14.375 C-10.4904297 10.44914359 -10.94567955 7.21716542 -9.5625 3.375 C-8.9025 3.375 -8.2425 3.375 -7.5625 3.375 C-7.5625 2.715 -7.5625 2.055 -7.5625 1.375 C-4.68262936 -0.10607633 -3.20052829 -0.78061666 0 0 Z " fill="#AA413B" transform="translate(84.5625,25.625)"/>
<path d="M0 0 C3.96 0 7.92 0 12 0 C12 0.66 12 1.32 12 2 C12.804375 2.391875 13.60875 2.78375 14.4375 3.1875 C17 5 17 5 17.9375 8.4375 C18.0245098 13.39705882 18.0245098 13.39705882 16 16 C13.48151662 17.88886253 12.17180132 18.00715839 9 17.875 C5.46199505 16.84308189 4.08227446 16.04332421 2 13 C1.4375 9.5 1.4375 9.5 2 6 C4.5 3.5625 4.5 3.5625 7 2 C4.69 1.67 2.38 1.34 0 1 C0 0.67 0 0.34 0 0 Z M9 8 C9 9.32 9 10.64 9 12 C9.99 11.67 10.98 11.34 12 11 C12 10.01 12 9.02 12 8 C11.01 8 10.02 8 9 8 Z " fill="#6F96A2" transform="translate(57,112)"/>
<path d="M0 0 C0.66 0 1.32 0 2 0 C2 1.65 2 3.3 2 5 C2.69222656 4.98839844 3.38445313 4.97679688 4.09765625 4.96484375 C12.44788961 4.88783238 20.67891834 5.36341452 29 6 C29 6.99 29 7.98 29 9 C21.74 9 14.48 9 7 9 C7.66 11.31 8.32 13.62 9 16 C9.07403678 18.33215844 9.09515886 20.66860788 9 23 C8.34 23.33 7.68 23.66 7 24 C6.34 23.67 5.68 23.34 5 23 C5 22.34 5 21.68 5 21 C4.34 21 3.68 21 3 21 C1.33826603 16.67949167 0.64627932 12.68852069 0.22265625 8.12109375 C0.01917703 5.8400419 0.01917703 5.8400419 -0.625 3 C-0.74875 2.34 -0.8725 1.68 -1 1 C-0.67 0.67 -0.34 0.34 0 0 Z " fill="#7BAAB8" transform="translate(43,64)"/>
<path d="M0 0 C18.15 0 36.3 0 55 0 C55 0.99 55 1.98 55 3 C49.4173209 3.02501545 43.83467557 3.04300682 38.25195312 3.05493164 C36.35904369 3.05991129 34.46613799 3.06669743 32.57324219 3.07543945 C21.66235654 3.12450957 10.87306287 3.01884711 0 2 C0 1.34 0 0.68 0 0 Z " fill="#79ADBE" transform="translate(57,109)"/>
<path d="M0 0 C0 0.66 0 1.32 0 2 C1.98 1.34 3.96 0.68 6 0 C5.67 0.99 5.34 1.98 5 3 C5.66 3 6.32 3 7 3 C7 2.34 7 1.68 7 1 C7.66 1 8.32 1 9 1 C7.49373726 4.83412335 5.40731799 6.72845467 2 9 C-1.93659121 10.38126007 -4.81521461 11 -9 11 C-11 8 -11 8 -10.875 5.5 C-9.80452058 2.44148736 -8.78680582 1.59246047 -6 0 C-2.48275862 -1.24137931 -2.48275862 -1.24137931 0 0 Z " fill="#88994F" transform="translate(100,56)"/>
<path d="M0 0 C0.98120464 3.05263664 0.98120464 4.94736336 0 8 C0.99 8 1.98 8 3 8 C3 6.35 3 4.7 3 3 C3.99 3 4.98 3 6 3 C3.91400026 12.0393322 -2.98985234 18.42049472 -10 24 C-10 22.35 -10 20.7 -10 19 C-11.65 19.66 -13.3 20.32 -15 21 C-14.13375 20.01 -13.2675 19.02 -12.375 18 C-7.54965541 12.35332016 -3.0680598 6.81791066 0 0 Z " fill="#B1764A" transform="translate(136,102)"/>
<path d="M0 0 C0.88880859 0.00064453 1.77761719 0.00128906 2.69335938 0.00195312 C6.5848858 0.02826698 10.05024493 0.11524394 13.8125 1.1875 C14.3075 3.1675 14.3075 3.1675 14.8125 5.1875 C14.12736328 5.18226318 13.44222656 5.17702637 12.73632812 5.17163086 C9.59506163 5.15068555 6.45380989 5.1377844 3.3125 5.125 C1.69601563 5.11243164 1.69601563 5.11243164 0.046875 5.09960938 C-9.82507251 4.72201327 -9.82507251 4.72201327 -19.1875 7.1875 C-18.625 4.8125 -18.625 4.8125 -17.1875 2.1875 C-11.46840296 -0.04415824 -6.08173259 -0.08490295 0 0 Z " fill="#9AB258" transform="translate(80.1875,11.8125)"/>
<path d="M0 0 C1.19367188 -0.00128906 2.38734375 -0.00257812 3.6171875 -0.00390625 C4.87015625 -0.00003906 6.123125 0.00382812 7.4140625 0.0078125 C8.65929687 0.00394531 9.90453125 0.00007813 11.1875 -0.00390625 C12.38375 -0.00261719 13.58 -0.00132813 14.8125 0 C15.90997559 0.00112793 17.00745117 0.00225586 18.13818359 0.00341797 C20.62139083 0.11418214 22.67403075 0.41090072 25.0390625 1.1328125 C25.0390625 3.7728125 25.0390625 6.4128125 25.0390625 9.1328125 C24.7090625 9.1328125 24.3790625 9.1328125 24.0390625 9.1328125 C24.0390625 6.8228125 24.0390625 4.5128125 24.0390625 2.1328125 C14.4690625 2.4628125 4.8990625 2.7928125 -4.9609375 3.1328125 C-5.2909375 3.7928125 -5.6209375 4.4528125 -5.9609375 5.1328125 C2.2890625 5.1328125 10.5390625 5.1328125 19.0390625 5.1328125 C19.0390625 6.1228125 19.0390625 7.1128125 19.0390625 8.1328125 C18.7090625 7.8028125 18.3790625 7.4728125 18.0390625 7.1328125 C16.28105016 7.06988546 14.52056587 7.07346884 12.76171875 7.10546875 C11.15586914 7.12383789 11.15586914 7.12383789 9.51757812 7.14257812 C7.24407595 7.17767507 4.97063128 7.21672428 2.69726562 7.25976562 C1.08948242 7.27620117 1.08948242 7.27620117 -0.55078125 7.29296875 C-1.53941162 7.30980713 -2.52804199 7.32664551 -3.54663086 7.34399414 C-5.9609375 7.1328125 -5.9609375 7.1328125 -7.9609375 5.1328125 C-7.9609375 3.8128125 -7.9609375 2.4928125 -7.9609375 1.1328125 C-5.23229577 -0.23150836 -3.05113473 0.00314226 0 0 Z " fill="#688A94" transform="translate(98.9609375,67.8671875)"/>
<path d="M0 0 C0.66 0.33 1.32 0.66 2 1 C1.34773438 1.61746094 0.69546875 2.23492187 0.0234375 2.87109375 C-6.61641612 9.30528819 -11.96285048 15.66403386 -16 24 C-18.8496422 21.43180394 -20.70198269 18.47767528 -22.75 15.25 C-26.04583565 10.22079894 -29.50771902 5.98689937 -34 2 C-30.46671423 2 -29.29786504 3.02654195 -26.6953125 5.2890625 C-23.44541405 8.56891393 -20.73343001 12.28803439 -18 16 C-15.48958151 15.62451005 -14.29018586 15.3268577 -12.578125 13.3984375 C-12.13984375 12.73070312 -11.7015625 12.06296875 -11.25 11.375 C-8.065077 6.85077605 -4.27681824 3.47355796 0 0 Z " fill="#4D543C" transform="translate(99,48)"/>
<path d="M0 0 C2.5693511 3.85402665 3.59312655 7.58753327 5 12 C10.94 12 16.88 12 23 12 C23 12.33 23 12.66 23 13 C18.64667264 13.84023188 14.55557481 14.10770995 10.125 14.0625 C8.97257812 14.05347656 7.82015625 14.04445313 6.6328125 14.03515625 C5.76398437 14.02355469 4.89515625 14.01195313 4 14 C3.08307039 16.75078884 2.89113917 18.35948913 2.9375 21.1875 C2.958125 22.445625 2.97875 23.70375 3 25 C0.46408565 21.19612847 -0.74620428 17.31371331 -2.1875 13 C-2.61579102 11.77023438 -2.61579102 11.77023438 -3.05273438 10.515625 C-3.31763672 9.72671875 -3.58253906 8.9378125 -3.85546875 8.125 C-4.22128052 7.04605469 -4.22128052 7.04605469 -4.59448242 5.9453125 C-5 4 -5 4 -4 1 C-4 1.66 -4 2.32 -4 3 C-3.01 3 -2.02 3 -1 3 C-0.67 2.01 -0.34 1.02 0 0 Z " fill="#6D959F" transform="translate(52,84)"/>
<path d="M0 0 C3.92832472 3.57303255 6.20254194 6.85185097 8.375 11.6875 C8.89835938 12.82574219 9.42171875 13.96398437 9.9609375 15.13671875 C10.30382812 16.08160156 10.64671875 17.02648437 11 18 C10.67 18.66 10.34 19.32 10 20 C8.68 18.68 7.36 17.36 6 16 C6 18.31 6 20.62 6 23 C3.84721558 19.77082337 2.15034985 16.40911114 0.4375 12.9375 C0.12103516 12.30005859 -0.19542969 11.66261719 -0.52148438 11.00585938 C-1.3492485 9.33802889 -2.17476539 7.66908353 -3 6 C-3.33 5.34 -3.66 4.68 -4 4 C-2.68 4 -1.36 4 0 4 C0 2.68 0 1.36 0 0 Z " fill="#AF774B" transform="translate(134,37)"/>
<path d="M0 0 C9.57 0 19.14 0 29 0 C29 1.65 29 3.3 29 5 C27.68 5.33 26.36 5.66 25 6 C24.67 5.34 24.34 4.68 24 4 C15.75 3.67 7.5 3.34 -1 3 C-0.67 2.01 -0.34 1.02 0 0 Z " fill="#7AABBE" transform="translate(94,70)"/>
<path d="M0 0 C0.66 0.33 1.32 0.66 2 1 C1.50628906 1.39832031 1.01257813 1.79664063 0.50390625 2.20703125 C-0.13675781 2.73683594 -0.77742188 3.26664063 -1.4375 3.8125 C-2.07558594 4.33457031 -2.71367188 4.85664062 -3.37109375 5.39453125 C-5.2548275 7.00834411 -5.2548275 7.00834411 -6 10 C-3.525 10.99 -3.525 10.99 -1 12 C-1.90626784 13.2989839 -2.82549537 14.58893167 -3.75 15.875 C-4.26046875 16.59429687 -4.7709375 17.31359375 -5.296875 18.0546875 C-7.07503547 20.08570565 -8.52701607 20.97855012 -11 22 C-11.63501925 15.90381524 -11.04932229 11.86507491 -7.51171875 6.796875 C-5.25563694 4.11522737 -2.80955778 2.0908337 0 0 Z M-5 12 C-4 14 -4 14 -4 14 Z " fill="#9CB059" transform="translate(95,40)"/>
<path d="M0 0 C14.19 0 28.38 0 43 0 C39.53037656 3.46962344 34.72594576 2.86763786 30 3 C24.75740284 2.84071551 19.54008454 2.46847133 14.3125 2.0625 C12.91737686 1.96077396 11.52219447 1.85985725 10.12695312 1.75976562 C6.75063554 1.51442767 3.37513662 1.26100205 0 1 C0 0.67 0 0.34 0 0 Z " fill="#658890" transform="translate(69,112)"/>
<path d="M0 0 C2.64752004 2.57784846 4.94432065 4.91648098 7 8 C7 8.99 7 9.98 7 11 C0.94721776 11.32297455 -3.78023727 11.52333984 -9 8 C-9.66 7.01 -10.32 6.02 -11 5 C-10.01 5 -9.02 5 -8 5 C-8 5.66 -8 6.32 -8 7 C-3.85906302 7.20970559 -3.85906302 7.20970559 0 6 C0 4.02 0 2.04 0 0 Z " fill="#87984F" transform="translate(70,55)"/>
<path d="M0 0 C6.27 0.33 12.54 0.66 19 1 C19 2.32 19 3.64 19 5 C14.05 5 9.1 5 4 5 C4 4.34 4 3.68 4 3 C2.68 2.67 1.36 2.34 0 2 C0 1.34 0 0.68 0 0 Z " fill="#93AC55" transform="translate(63,137)"/>
<path d="M0 0 C5.7097955 0.41778991 8.60957142 2.57546571 13 6 C11.68 6.33 10.36 6.66 9 7 C9 7.66 9 8.32 9 9 C5.04179141 8.43454163 2.3340947 7.19097652 -1 5 C-0.67 3.35 -0.34 1.7 0 0 Z " fill="#92A455" transform="translate(111,19)"/>
<path d="M0 0 C0.66 0.33 1.32 0.66 2 1 C1.25 7.75 1.25 7.75 -1 10 C-8.17205692 10.56921087 -8.17205692 10.56921087 -11 8.625 C-12 7 -12 7 -12 5 C-9.69 5.66 -7.38 6.32 -5 7 C-4.67 5.35 -4.34 3.7 -4 2 C-3.01 3.485 -3.01 3.485 -2 5 C-1.34 3.35 -0.68 1.7 0 0 Z " fill="#6E949F" transform="translate(107,118)"/>
<path d="M0 0 C0.94875 0.04125 1.8975 0.0825 2.875 0.125 C3.205 0.785 3.535 1.445 3.875 2.125 C2.885 2.785 1.895 3.445 0.875 4.125 C0.18746699 5.78316784 -0.48061283 7.44959336 -1.125 9.125 C-2.115 9.62 -2.115 9.62 -3.125 10.125 C-3.785 9.795 -4.445 9.465 -5.125 9.125 C-5.25 5.75 -5.25 5.75 -5.125 2.125 C-3.125 0.125 -3.125 0.125 0 0 Z " fill="#7CA9B2" transform="translate(64.125,115.875)"/>
<path d="M0 0 C-1.80412643 3.26460973 -2.83394693 4.88929795 -6 7 C-8.04296875 7.1953125 -8.04296875 7.1953125 -10.1875 7.125 C-12.0746875 7.063125 -12.0746875 7.063125 -14 7 C-14 6.34 -14 5.68 -14 5 C-2.97297297 -1.48648649 -2.97297297 -1.48648649 0 0 Z " fill="#D1824D" transform="translate(113,131)"/>
<path d="M0 0 C4.62 0 9.24 0 14 0 C13 2 13 2 10.375 3.125 C6.78189212 4.05654649 3.69584376 4.14783375 0 4 C0 2.68 0 1.36 0 0 Z " fill="#CF834B" transform="translate(83,138)"/>
<path d="M0 0 C0.33 0 0.66 0 1 0 C1.05878077 3.64576392 1.0938558 7.29140352 1.125 10.9375 C1.14175781 11.95908203 1.15851563 12.98066406 1.17578125 14.03320312 C1.21618815 20.35688352 0.62010013 25.88316527 -1 32 C-1.33 32 -1.66 32 -2 32 C-2.02696365 30.20841511 -2.04637917 28.41671527 -2.0625 26.625 C-2.07410156 25.62726563 -2.08570313 24.62953125 -2.09765625 23.6015625 C-2 21 -2 21 -1 19 C-0.84932786 17.5534758 -0.75138964 16.1012066 -0.68359375 14.6484375 C-0.64169922 13.79765625 -0.59980469 12.946875 -0.55664062 12.0703125 C-0.51732422 11.18085937 -0.47800781 10.29140625 -0.4375 9.375 C-0.39431641 8.4778125 -0.35113281 7.580625 -0.30664062 6.65625 C-0.20043139 4.43765717 -0.09838806 2.2189512 0 0 Z " fill="#9A6D4B" transform="translate(147,65)"/>
<path d="M0 0 C0.66 0.33 1.32 0.66 2 1 C0.98679687 1.99580078 0.98679687 1.99580078 -0.046875 3.01171875 C-1.38492188 4.33623047 -1.38492188 4.33623047 -2.75 5.6875 C-3.63171875 6.55761719 -4.5134375 7.42773438 -5.421875 8.32421875 C-7.78805298 10.78002468 -9.91892556 13.30141048 -12 16 C-12.66 15.34 -13.32 14.68 -14 14 C-12.23304141 12.03804598 -10.46168211 10.08040373 -8.6875 8.125 C-8.18798828 7.56941406 -7.68847656 7.01382813 -7.17382812 6.44140625 C-4.8912844 3.93211977 -2.83639832 1.89093222 0 0 Z " fill="#5D673D" transform="translate(99,48)"/>
<path d="M0 0 C0.33 1.32 0.66 2.64 1 4 C2.32 3.67 3.64 3.34 5 3 C5.33 3.99 5.66 4.98 6 6 C6.66 6.66 7.32 7.32 8 8 C3.25 7.125 3.25 7.125 1 6 C2.10709491 8.06295292 2.10709491 8.06295292 4 10 C7.10197397 10.80946422 7.10197397 10.80946422 10 11 C10 11.33 10 11.66 10 12 C3.75 12.48076923 3.75 12.48076923 0.5625 10.4375 C-1.54048663 7.15684085 -1.360388 4.82011276 -1 1 C-0.67 0.67 -0.34 0.34 0 0 Z " fill="#6C8C96" transform="translate(94,117)"/>
<path d="M0 0 C0.99 0.33 1.98 0.66 3 1 C3.22151549 2.79008467 3.42682213 4.58218162 3.625 6.375 C3.74101562 7.37273437 3.85703125 8.37046875 3.9765625 9.3984375 C3.98429687 10.25695312 3.99203125 11.11546875 4 12 C3.34 12.66 2.68 13.32 2 14 C1 13 1 13 0.90234375 11.15234375 C0.93489583 9.1015625 0.96744792 7.05078125 1 5 C0.34 5 -0.32 5 -1 5 C-0.67 3.35 -0.34 1.7 0 0 Z " fill="#97AE55" transform="translate(18,84)"/>
<path d="M0 0 C3.78214101 4.86275272 3.78214101 4.86275272 3.5078125 8.16796875 C3.29898438 9.24691406 3.09015625 10.32585937 2.875 11.4375 C2.67132813 12.52417969 2.46765625 13.61085938 2.2578125 14.73046875 C2.09023437 15.56191406 1.92265625 16.39335938 1.75 17.25 C1.09 16.92 0.43 16.59 -0.25 16.25 C-0.23839844 15.43015625 -0.22679688 14.6103125 -0.21484375 13.765625 C-0.20582031 12.68796875 -0.19679688 11.6103125 -0.1875 10.5 C-0.17589844 9.43265625 -0.16429688 8.3653125 -0.15234375 7.265625 C-0.23489913 4.71631499 -0.50382442 2.67066409 -1.25 0.25 C-3.56 0.25 -5.87 0.25 -8.25 0.25 C-8.25 -0.08 -8.25 -0.41 -8.25 -0.75 C-2.85576923 -2.22115385 -2.85576923 -2.22115385 0 0 Z " fill="#788657" transform="translate(79.25,66.75)"/>
<path d="M0 0 C0 0.99 0 1.98 0 3 C0.99 3.33 1.98 3.66 3 4 C3.6875 6.0625 3.6875 6.0625 4 8 C2.125 8.625 2.125 8.625 0 9 C-0.66 8.34 -1.32 7.68 -2 7 C-4.10820797 7.3185177 -4.10820797 7.3185177 -6 8 C-4.55746343 4.63408134 -2.66735273 2.48952921 0 0 Z " fill="#A2B658" transform="translate(100,49)"/>
<path d="M0 0 C0.66 0.33 1.32 0.66 2 1 C1.67 3.64 1.34 6.28 1 9 C1.66 9 2.32 9 3 9 C3.4125 9.474375 3.825 9.94875 4.25 10.4375 C6.65788428 12.58739668 8.85408584 12.65045398 12 13 C9 15 9 15 6.5625 14.8125 C3.66021725 13.89226401 2.08665969 13.23570681 0 11 C-0.9279297 7.07414359 -1.38317955 3.84216542 0 0 Z " fill="#88443E" transform="translate(75,29)"/>
<path d="M0 0 C2.31 0.33 4.62 0.66 7 1 C7.33 2.65 7.66 4.3 8 6 C5.69 5.67 3.38 5.34 1 5 C0.67 3.35 0.34 1.7 0 0 Z " fill="#CE928E" transform="translate(81,27)"/>
<path d="M0 0 C1.2065625 0.0309375 1.2065625 0.0309375 2.4375 0.0625 C2.4375 0.3925 2.4375 0.7225 2.4375 1.0625 C6.7275 1.3925 11.0175 1.7225 15.4375 2.0625 C15.4375 2.3925 15.4375 2.7225 15.4375 3.0625 C14.23351562 3.11148438 13.02953125 3.16046875 11.7890625 3.2109375 C10.21351802 3.28596343 8.63799834 3.36151133 7.0625 3.4375 C6.2684375 3.4684375 5.474375 3.499375 4.65625 3.53125 C0.07082625 3.58066421 0.07082625 3.58066421 -3.5625 6.0625 C-3.605221 4.39638095 -3.60313832 2.72867115 -3.5625 1.0625 C-2.5625 0.0625 -2.5625 0.0625 0 0 Z " fill="#69949F" transform="translate(61.5625,98.9375)"/>
<path d="M0 0 C1.9375 0.0625 1.9375 0.0625 4 1 C5.38150201 4.17745463 6 6.53122824 6 10 C5.34 10 4.68 10 4 10 C3.67 7.69 3.34 5.38 3 3 C2.34 3 1.68 3 1 3 C1 5.97 1 8.94 1 12 C-1.11257974 7.77484052 -1.26149964 5.61982692 -1 1 C-0.67 0.67 -0.34 0.34 0 0 Z " fill="#7B8954" transform="translate(17,82)"/>
<path d="M0 0 C1.32 0 2.64 0 4 0 C4 0.66 4 1.32 4 2 C4.99 2.33 5.98 2.66 7 3 C6.67 4.32 6.34 5.64 6 7 C3.53199953 5.84826645 1.95216435 4.95216435 0 3 C0 2.01 0 1.02 0 0 Z " fill="#CD8851" transform="translate(120,26)"/>
<path d="M0 0 C0.99 1.32 1.98 2.64 3 4 C2.01 4.33 1.02 4.66 0 5 C-1.01754868 6.8653245 -1.01754868 6.8653245 -1.6875 9.0625 C-1.93886719 9.79597656 -2.19023438 10.52945313 -2.44921875 11.28515625 C-2.63097656 11.85105469 -2.81273438 12.41695312 -3 13 C-4.1484375 11.296875 -4.1484375 11.296875 -5 9 C-4.1015625 6.640625 -4.1015625 6.640625 -2.625 4.25 C-2.14289063 3.45078125 -1.66078125 2.6515625 -1.1640625 1.828125 C-0.77992187 1.22484375 -0.39578125 0.6215625 0 0 Z " fill="#7D8B57" transform="translate(88,62)"/>
<path d="M0 0 C2 2 2 2 2 5 C0.39620659 5.05416188 -1.20811406 5.09286638 -2.8125 5.125 C-3.70582031 5.14820312 -4.59914063 5.17140625 -5.51953125 5.1953125 C-8 5 -8 5 -11 3 C-10.113125 3.020625 -9.22625 3.04125 -8.3125 3.0625 C-5.37830369 3.00713781 -2.84506304 2.6694266 0 2 C0 1.34 0 0.68 0 0 Z " fill="#839150" transform="translate(75,61)"/>
<path d="M0 0 C1.31571603 0.2547514 2.62760376 0.52934141 3.9375 0.8125 C4.66839844 0.96332031 5.39929688 1.11414063 6.15234375 1.26953125 C6.76207031 1.51058594 7.37179688 1.75164062 8 2 C8.33 2.99 8.66 3.98 9 5 C3.5 5.36666667 3.5 5.36666667 1.125 3.625 C0 2 0 2 0 0 Z " fill="#7FACBC" transform="translate(95,123)"/>
<path d="M0 0 C2.31 0 4.62 0 7 0 C7 1.32 7 2.64 7 4 C5.02 4 3.04 4 1 4 C0.67 2.68 0.34 1.36 0 0 Z " fill="#91A954" transform="translate(94,13)"/>
<path d="M0 0 C1.32 0.33 2.64 0.66 4 1 C4.1875 3.375 4.1875 3.375 4 6 C3.01 6.66 2.02 7.32 1 8 C0.67 5.36 0.34 2.72 0 0 Z " fill="#7DABB8" transform="translate(103,116)"/>
<path d="M0 0 C0.66 0.33 1.32 0.66 2 1 C1.50628906 1.40992188 1.01257813 1.81984375 0.50390625 2.2421875 C-0.13675781 2.78101563 -0.77742188 3.31984375 -1.4375 3.875 C-2.07558594 4.40867187 -2.71367188 4.94234375 -3.37109375 5.4921875 C-5.10805004 6.9222757 -5.10805004 6.9222757 -6 9 C-6.66 9 -7.32 9 -8 9 C-6.4169423 4.7257442 -3.49431596 2.73468206 0 0 Z " fill="#909E57" transform="translate(95,40)"/>
<path d="M0 0 C1.65 1.65 3.3 3.3 5 5 C4.67 5.99 4.34 6.98 4 8 C2 6.25 2 6.25 0 4 C0 2.68 0 1.36 0 0 Z " fill="#91A15A" transform="translate(70,55)"/>
<path d="M0 0 C0.66 0.33 1.32 0.66 2 1 C-0.31 3.31 -2.62 5.62 -5 8 C-5.66 7.34 -6.32 6.68 -7 6 C-4.69 4.02 -2.38 2.04 0 0 Z " fill="#707F40" transform="translate(99,48)"/>
<path d="M0 0 C1.32 0 2.64 0 4 0 C3.34 1.98 2.68 3.96 2 6 C1.01 6 0.02 6 -1 6 C-0.67 4.02 -0.34 2.04 0 0 Z " fill="#D3874F" transform="translate(137,104)"/>
<path d="M0 0 C0.33 0 0.66 0 1 0 C1.33 1.65 1.66 3.3 2 5 C2.99 5 3.98 5 5 5 C3.625 7 3.625 7 2 9 C1.34 9 0.68 9 0 9 C0 6.03 0 3.06 0 0 Z " fill="#8B995B" transform="translate(84,53)"/>
<path d="M0 0 C0.33 0.66 0.66 1.32 1 2 C0.0625 4.625 0.0625 4.625 -1 7 C-0.01 7.33 0.98 7.66 2 8 C1.01 8.33 0.02 8.66 -1 9 C-1.66 8.34 -2.32 7.68 -3 7 C-2.67028521 3.70285207 -2.3773161 2.3773161 0 0 Z " fill="#7F9255" transform="translate(33,31)"/>
<path d="M0 0 C3.76488042 1.72154788 6.15063897 3.99234114 9 7 C6 7 6 7 4.39453125 5.46875 C3.87246094 4.8190625 3.35039063 4.169375 2.8125 3.5 C2.28269531 2.8503125 1.75289063 2.200625 1.20703125 1.53125 C0.80871094 1.0259375 0.41039063 0.520625 0 0 Z " fill="#67733B" transform="translate(65,49)"/>
</svg>
